<?xml version="1.0" encoding="utf-8"?>
<!-- Generator: Adobe Illustrator 23.0.2, SVG Export Plug-In . SVG Version: 6.00 Build 0)  -->
<svg version="1.1" id="图层_1" xmlns="http://www.w3.org/2000/svg" xmlns:xlink="http://www.w3.org/1999/xlink" x="0px" y="0px"
	 viewBox="0 0 2592 494" style="enable-background:new 0 0 2592 494;" xml:space="preserve">
<style type="text/css">
	.st0{fill:#FFFFFF;}
</style>
<path class="st0" d="M185.56,247.53c8.05,5.41,18.8,4.61,27.79,2.54c2.02-0.47,4.02-1.01,6-1.62c14.43-4.43,27.9-12.39,40.28-20.74
	c26.32-17.78,54.53-25.46,75.56-20.9c7.58,1.65,14.24,4.87,19.53,9.82c4.4,4.04,7.54,8.99,9.46,14.64c0.79,2.34,4.11,2.35,4.94,0.02
	c9.41-26.35,8.86-50.06-3.85-66.46c-4.66-6.01-10.68-10.69-17.8-14.07c-11.49-4.87-24.46-6.21-35.23-6.21
	c-2.52,0-5.13,0.07-7.74,0.22l-0.01-0.09c-5.87,0.3-11.87,0.98-17.93,2.07c-1.1,0.2-2.18,0.42-3.26,0.64
	c-3.74,0.8-7.53,1.73-11.39,2.8c-16.19,4.5-33.29,11.39-50.58,20.55c-2.22,1.18-4.44,2.39-6.67,3.64
	c-3.78,2.25-7.48,4.74-11.06,7.52c-13.07,10.13-24.07,23.31-26.7,40.22C175.43,231.47,177.21,241.92,185.56,247.53z"/>
<path class="st0" d="M419.67,53.66c17.13,18.25,24.27,42.34,22.61,69.24c-0.17,2.72-3.93,3.41-5.01,0.91
	c-1.59-3.69-3.57-7.19-5.97-10.51c-33.05-45.24-128.33-32.49-212.15,28.44c-83.82,60.93-125.37,147.53-92.31,192.95
	c11,15.18,29.13,23.84,51.48,26.4c3.06,0.35,3.16,4.72,0.12,5.2c-51.47,8.02-96.83-1.24-123.24-29.75
	C3.12,280.58,42.63,171.46,143.08,93.54C243.52,15.62,367.78-2.29,419.67,53.66z"/>
<path class="st0" d="M85.28,440.47c-17.03-18.48-24.28-42.56-22.58-69.55c0.17-2.77,3.94-3.37,5.04-0.83
	c1.63,3.77,3.65,7.35,6.1,10.74c32.87,45.05,128.14,32.49,211.97-28.25c84.01-60.93,125.55-147.71,92.5-193.13
	c-11.11-15.14-29.12-23.8-51.35-26.3c-3.06-0.34-3.17-4.72-0.13-5.2c51.27-8.09,96.58,1.18,123.12,29.65
	c51.88,55.94,12.37,165.07-88.07,242.98C261.61,478.33,137.35,496.24,85.28,440.47z"/>
<path class="st0" d="M284.04,322.23c2.25-1.13,4.47-2.33,6.67-3.64C288.48,319.84,286.26,321.05,284.04,322.23z"/>
<path class="st0" d="M233.46,342.77c-3.85,1.07-7.65,2.01-11.39,2.8C225.97,344.78,229.77,343.85,233.46,342.77z"/>
<path class="st0" d="M319.8,245.44c-8.05-5.41-18.8-4.61-27.79-2.54c-2.02,0.47-4.02,1.01-6,1.62
	c-14.43,4.43-27.9,12.39-40.28,20.74c-26.32,17.78-54.53,25.46-75.56,20.9c-7.58-1.65-14.24-4.87-19.53-9.82
	c-4.4-4.04-7.54-8.99-9.46-14.64c-0.79-2.34-4.11-2.35-4.94-0.02c-9.41,26.35-8.86,50.06,3.85,66.46
	c4.66,6.01,10.68,10.69,17.8,14.07c11.49,4.87,24.46,6.21,35.23,6.21c2.52,0,5.13-0.07,7.74-0.22l0.01,0.09
	c5.87-0.3,11.87-0.98,17.93-2.07c1.1-0.2,2.18-0.42,3.26-0.64c3.74-0.8,7.53-1.73,11.39-2.8c16.19-4.5,33.29-11.39,50.58-20.55
	c2.22-1.18,4.44-2.39,6.67-3.64c3.78-2.25,7.48-4.74,11.06-7.52c13.07-10.13,24.07-23.31,26.7-40.22
	C329.93,261.5,328.15,251.05,319.8,245.44z"/>
<path class="st0" d="M590.32,327.76v-18.95c0-3.38,2.74-6.12,6.12-6.12h99.8c16.9,0,28.13-1.22,33.68-3.67
	c8.1-3.67,12.15-9.17,12.15-16.51c0-8.56-4.75-14.76-14.24-18.6c-5.33-2.27-13.89-3.41-25.7-3.41h-43.06
	c-26.16,0-45.03-3.58-56.6-10.74c-7.18-4.54-12.79-10.22-16.84-17.03c-4.05-6.81-6.08-14.15-6.08-22.01
	c0-12.22,4.74-23.4,14.24-33.54c9.26-9.78,24.07-15.54,44.45-17.29c6.95-0.52,17.24-0.79,30.91-0.79h106.82
	c4.49,0,8.13,3.64,8.13,8.13v14.93c0,4.49-3.64,8.13-8.13,8.13h-95.7c-15.51,0.18-25.82,0.7-30.91,1.57
	c-10.42,1.92-15.63,7.86-15.63,17.82c0,8.38,4.39,13.98,13.2,16.77c5.78,2.1,15.51,3.14,29.17,3.14h37.16
	c18.98,0,33.1,1.22,42.37,3.67c16.43,4.19,27.78,11.53,34.03,22.01c4.86,8.38,7.29,17.38,7.29,26.99c0,10.66-3.24,20.17-9.72,28.56
	c-9.03,11.88-22.57,19.04-40.63,21.48c-8.8,1.05-22.11,1.57-39.93,1.57H596.43C593.05,333.88,590.32,331.14,590.32,327.76z"/>
<path class="st0" d="M933.45,150.73c21.25,0,39.95,3.22,56.11,9.65c18.91,7.76,32.2,20.72,39.85,38.88
	c5.95,14.19,8.93,30.84,8.93,49.94c0,19.3-3.62,36.04-10.84,50.23c-9.14,16.84-23.17,28.66-42.08,35.47
	c-14.03,4.92-30.18,7.38-48.46,7.38c-24.02,0-44.85-3.97-62.48-11.92c-14.88-6.62-26.25-17.03-34.11-31.22
	c-7.87-14.19-11.8-31.4-11.8-51.65c0-36.13,10.09-61.86,30.28-77.19C875.85,157.44,900.72,150.92,933.45,150.73z M933.8,187.42
	c-22.69,0-38.89,5.59-48.62,16.77c-7.87,8.74-11.81,22.79-11.81,42.18c0,20.44,4.86,35.46,14.58,45.06
	c9.72,9.43,25.12,14.15,46.19,14.15c20.37,0,35.36-4.8,44.97-14.41c9.6-9.6,14.41-24.45,14.41-44.54c0-18.34-3.94-32.31-11.81-41.92
	C972.69,193.36,956.71,187.59,933.8,187.42z"/>
<path class="st0" d="M1258.81,238.69v15.09c0,4.44-3.6,8.04-8.04,8.04h-122.12c-4.44,0-8.04,3.6-8.04,8.04v55.96
	c0,4.44-3.6,8.04-8.04,8.04h-32.88c-4.44,0-8.04-3.6-8.04-8.04V242.7c0.23-26.2,3.47-43.4,9.72-51.61
	c7.87-11.53,19.27-19.74,34.21-24.63c14.93-4.89,35.94-7.34,63.03-7.34h72.17c4.44,0,8.04,3.6,8.04,8.04v15.09
	c0,4.44-3.6,8.04-8.04,8.04h-65.92c-22.92,0.35-37.62,1.75-44.1,4.19c-12.97,4.02-19.68,12.93-20.14,26.72v1.39
	c0,4.44,3.6,8.04,8.04,8.04h122.12C1255.21,230.65,1258.81,234.25,1258.81,238.69z"/>
<path class="st0" d="M1354.4,190.3h-57.09c-4.56,0-8.26-3.7-8.26-8.26v-14.65c0-4.56,3.7-8.26,8.26-8.26h183.15
	c4.56,0,8.26,3.7,8.26,8.26v14.65c0,4.56-3.7,8.26-8.26,8.26h-60.22c-4.56,0-8.26,3.7-8.26,8.26v127.05c0,4.56-3.7,8.26-8.26,8.26
	h-32.79c-4.56,0-8.26-3.7-8.26-8.26V198.56C1362.66,194,1358.97,190.3,1354.4,190.3z"/>
<path class="st0" d="M1575.25,221.08c-1.06,5.06,2.76,9.83,7.93,9.83h69.08c17.59,0,30.61,0.7,39.07,2.1
	c8.45,1.4,15.57,3.93,21.36,7.6c15.05,9.26,22.57,22.27,22.57,39.04c0,19.91-11.35,35.11-34.03,45.59
	c-14.12,6.46-35.89,9.69-65.29,9.69c-21.07,0-37.97-1.4-50.7-4.19c-12.73-2.79-23.73-7.42-32.99-13.89
	c-11.35-8.21-19.91-19.04-25.7-32.49c-5.1-12.58-7.64-25.24-7.64-37.99c0-19.56,5.32-37.2,15.97-52.92
	c10.88-15.89,27.2-26.02,48.96-30.39c12.03-2.62,29.86-3.93,53.48-3.93h77.32c4.48,0,8.11,3.63,8.11,8.11v14.96
	c0,4.48-3.63,8.11-8.11,8.11h-62.38c-31.03-0.35-51.17,1.92-60.42,6.81c-5.56,2.97-9.84,7.38-12.85,13.23
	C1577.31,213.61,1576.06,217.19,1575.25,221.08z M1582.96,262.09c-4.98,0-8.82,4.46-8.02,9.38c1.37,8.4,4.46,15.32,9.26,20.75
	c4.4,5.07,10.42,8.56,18.06,10.48c7.64,1.92,19.1,2.88,34.38,2.88c9.26,0,16.55-0.43,21.88-1.31c5.32-0.87,9.84-2.36,13.54-4.45
	c6.02-3.49,9.03-8.91,9.03-16.24c0-7.68-3.71-13.53-11.11-17.55c-4.86-2.62-13.54-3.93-26.04-3.93H1582.96z"/>
<path class="st0" d="M2021.87,311.48v13.62c0,4.85-3.93,8.78-8.78,8.78h-72.13c-15.28,0-26.97-0.61-35.07-1.83
	c-28.47-4.19-48.74-16.15-60.77-35.89c-7.87-13.27-11.81-29.69-11.81-49.26c0-23.4,6.02-42.44,18.06-57.12
	c8.79-10.65,20.54-18.43,35.25-23.32c14.7-4.89,33.62-7.34,56.78-7.34h69.7c4.85,0,8.78,3.93,8.78,8.78v13.62
	c0,4.85-3.93,8.78-8.78,8.78h-64.15c-22,0-38.08,4.45-48.27,13.36c-8.57,7.34-12.85,20.61-12.85,39.82c0,25.85,6.6,42.8,19.79,50.83
	c9.26,5.59,23.73,8.38,43.41,8.38h62.06C2017.94,302.7,2021.87,306.63,2021.87,311.48z"/>
<path class="st0" d="M2369.01,164.35l53.8,127.4c0.62,1.47,2.7,1.49,3.35,0.03l56.8-127.59c1.37-3.08,4.43-5.07,7.81-5.07h57.78
	c4.72,0,8.55,3.83,8.55,8.55v157.66c0,4.72-3.83,8.55-8.55,8.55h-29.78c-4.72,0-8.55-3.83-8.55-8.55V214.66
	c0-2.77-3.77-3.6-4.93-1.08l-53.2,115.33c-1.4,3.03-4.43,4.97-7.76,4.97h-39.64c-3.4,0-6.47-2.01-7.83-5.12l-50.1-114.55
	c-1.12-2.57-4.96-1.77-4.96,1.04v110.09c0,4.72-3.83,8.55-8.55,8.55h-29.78c-4.72,0-8.55-3.83-8.55-8.55V167.67
	c0-4.72,3.83-8.55,8.55-8.55h57.67C2364.57,159.12,2367.67,161.18,2369.01,164.35z"/>
<path class="st0" d="M2157.45,151.73c21.25,0,39.95,3.22,56.11,9.65c18.91,7.76,32.2,20.72,39.85,38.88
	c5.95,14.19,8.93,30.84,8.93,49.94c0,19.3-3.62,36.04-10.84,50.23c-9.14,16.84-23.17,28.66-42.08,35.47
	c-14.03,4.92-30.18,7.38-48.46,7.38c-24.02,0-44.84-3.97-62.48-11.92c-14.88-6.62-26.25-17.03-34.11-31.22
	c-7.87-14.19-11.8-31.4-11.8-51.65c0-36.13,10.09-61.86,30.28-77.19C2099.85,158.44,2124.72,151.92,2157.45,151.73z M2157.8,188.42
	c-22.69,0-38.89,5.59-48.62,16.77c-7.87,8.74-11.81,22.79-11.81,42.18c0,20.44,4.86,35.46,14.58,45.06
	c9.72,9.43,25.12,14.15,46.19,14.15c20.37,0,35.36-4.8,44.97-14.41c9.6-9.6,14.41-24.45,14.41-44.54c0-18.34-3.94-32.31-11.81-41.92
	C2196.69,194.36,2180.71,188.59,2157.8,188.42z"/>
<circle class="st0" cx="1784.66" cy="326.24" r="17.03"/>
</svg>
