<?xml version="1.0" encoding="utf-8"?>
<!-- Generator: Adobe Illustrator 26.0.1, SVG Export Plug-In . SVG Version: 6.00 Build 0)  -->
<!DOCTYPE svg PUBLIC "-//W3C//DTD SVG 1.1//EN" "http://www.w3.org/Graphics/SVG/1.1/DTD/svg11.dtd" [
	<!ENTITY st0 "fill:url(#SVGID_1_);">
	<!ENTITY st1 "fill:#3E3A39;">
	<!ENTITY st2 "fill:#DF0011;">
]>
<svg version="1.1" id="圖層_1" xmlns="http://www.w3.org/2000/svg" xmlns:xlink="http://www.w3.org/1999/xlink" x="0px" y="0px"
	 viewBox="0 0 140 35" style="enable-background:new 0 0 140 35;" xml:space="preserve">
<g>
	<g>
		<linearGradient id="SVGID_1_" gradientUnits="userSpaceOnUse" x1="137.0049" y1="12.6212" x2="124.922" y2="29.3206">
			<stop  offset="0.046" style="stop-color:#F29100"/>
			<stop  offset="0.3958" style="stop-color:#E6051E"/>
			<stop  offset="0.7181" style="stop-color:#A70082"/>
			<stop  offset="1" style="stop-color:#7570B2"/>
		</linearGradient>
		<path style="&st0;" d="M128.88,12.79l-6.48,9.26l4.82,0l1.03-1.46h-3.51c-0.06,0-0.13-0.07-0.1-0.12c0,0,4.17-5.95,4.18-5.96
			c0.02-0.03,0.04-0.02,0.04-0.01s0,11.91,0,11.91l1.98-2.82V12.46h-1.32C129.26,12.46,129.02,12.58,128.88,12.79z M136.69,14.37
			v6.2c0,0.77-0.62,1.39-1.39,1.39h-1.93l-1.03,1.46h3.5c1.47,0,2.66-1.19,2.66-2.66v-8.97c0,0-0.8,0.92-1.2,1.52
			C136.89,13.92,136.69,14.37,136.69,14.37z M133.75,15.37c0-0.88,0.71-1.6,1.6-1.6h0.05l0.7-0.99h-1.35
			c-1.56,0-2.82,1.26-2.82,2.82v6.81l1.82-2.59V15.37z"/>
	</g>
	<g>
		<path style="&st1;" d="M55.6,25.93v-1.41h4.03v-6.88c0.08-0.95,0.74-1.37,0.74-1.37l-2.57-0.19v7.74h-4.01l0.01,7.91l1.8-0.57
			v-4.51h1.8h0.03v5.08l1.8-0.57v-4.51h1.34h0.04c0-0.66,0.27-0.72,0.27-0.72H55.6z M56.92,15.73h-7.73v7.2h7.73V15.73z
			 M55.09,22.23H51v-1.46h4.09V22.23z M55.09,20.06H51v-1.48h4.09V20.06z M55.09,17.89H51v-1.46h4.09V17.89z M48.27,23.82v-7.4
			l-1.93-0.34c0,0,0.09,2.99,0.09,3.77v1.26c0,0.98-0.14,3.41-0.14,3.41h4.46v1.41c0,0-3.64-0.01-3.76,0
			c-0.71-0.01-1.14-0.03-1.74-0.12c0.17,0.33,0.26,0.55,0.22,0.86c0.32-0.03,0.57-0.01,1.14-0.02h0.56v1.05
			c0,1.89-0.74,3.5-1.31,4.33c0,0,0.69-0.41,1.15-0.7c1.72-1.1,1.97-2.54,1.97-3.48v-1.2h1.76v5.08l1.8-0.57v-7.34H48.27z"/>
		<path style="&st1;" d="M107.58,22.53c0.01-0.01,0.77-1.01,1.24-1.45c0.08-0.06,0.09-0.14,0.02-0.3c-0.27-0.54-0.96-1.23-1.65-1.73
			c0.69-0.56,1.05-1.05,1.66-2.07c0.42-0.83,0.72-0.69,0.74-0.82c-0.44-0.18-1.5-0.64-1.84-0.82c-0.14-0.06-0.18,0.02-0.2,0.12
			c-0.01,0.07-0.03,0.19-0.06,0.36c-0.09,1.06-0.32,2.06-0.68,3c-0.28-0.18-0.45-0.29-0.54-0.31c-0.08-0.04-0.14-0.01-0.18,0.05
			c-0.02,0.03-0.02,0.06-0.02,0.09c0.6,0.75,1.04,2.04,1.21,3.54C107.32,22.57,107.47,22.69,107.58,22.53 M111.84,18.82
			c-0.01,0.04,0,0.07,0,0.1c0.77,0.57,1.54,1.7,2.03,3.12c0.08,0.22,0.14,0.44,0.2,0.66c0.05,0.09,0.11,0.08,0.21-0.09
			c0.27-0.58,0.58-1.06,1.01-1.58c0.08-0.08,0.03-0.17-0.03-0.29c-0.58-0.81-1.37-1.33-2.34-1.68c0.78-0.49,1.28-1.09,1.88-2.18
			c0.32-0.5,0.76-0.59,0.78-0.68c-0.17-0.08-1.46-0.65-1.82-0.85c-0.13-0.05-0.17,0.02-0.18,0.09c-0.24,1.61-0.55,2.78-0.92,3.51
			c-0.34-0.11-0.55-0.17-0.64-0.18C111.9,18.72,111.85,18.76,111.84,18.82 M109.06,18.69c-0.02,0.05-0.02,0.1-0.01,0.14
			c0.05,0.06,0.09,0.11,0.15,0.17c0.09,0.1,0.18,0.23,0.27,0.37c0.38,0.55,0.71,1.23,0.98,2c0.13,0.36,0.22,0.71,0.29,1.06
			c0.08,0.22,0.14,0.2,0.3-0.06c0.29-0.4,0.61-0.85,0.99-1.27c0.1-0.13,0.09-0.15,0.02-0.3c-0.35-0.69-1.14-1.34-1.92-1.78
			c0.76-0.55,1.12-0.93,1.72-2.02c0.44-0.71,0.75-0.71,0.76-0.86c-0.37-0.12-1.47-0.61-1.84-0.82c-0.12-0.05-0.18,0.02-0.2,0.12
			c-0.01,0.07-0.03,0.19-0.05,0.36c-0.13,1.24-0.37,2.26-0.71,3.06c-0.31-0.15-0.5-0.23-0.59-0.26
			C109.15,18.61,109.1,18.63,109.06,18.69 M110.83,23.95c0.56-0.63,0.87-0.35,0.89-0.48c0.03-0.15-1.35-0.83-1.84-0.99
			c-0.08-0.02-0.13,0.03-0.16,0.12c-0.05,0.42-0.14,0.88-0.28,1.36h-3.37c0.1,0.56,0.12,0.78,0.13,1.04v6.85l1.69-0.56v-0.5h5.56
			v1.06l1.69-0.56v-0.5v-5.56c0.03-0.95,0.57-1.27,0.57-1.27H110.83z M113.45,30.08h-5.56v-5.45h5.56V30.08z M108.5,29.49
			c0.65-0.22,1.32-0.62,1.99-1.2c0.06-0.07,0.14-0.18,0.21-0.24c0.28,0.36,0.72,0.94,1,1.54c0.03,0.07,0.1,0.13,0.17,0.03
			c0.26-0.33,0.61-0.92,0.95-1.23c0.03-0.03,0.12-0.11,0-0.23c-0.19-0.28-0.62-0.63-1.24-1.07c0.23-0.31,0.32-0.44,0.56-0.79
			c0.39-0.55,0.63-0.39,0.65-0.5c-0.12-0.11-1.34-0.7-1.77-0.96c-0.08,0-0.13,0.04-0.15,0.12c-0.13,0.51-0.28,0.98-0.44,1.41
			c-0.57-0.32-1.17-0.6-1.79-0.84c-0.04-0.01-0.08,0-0.11,0.03c-0.03,0.05-0.02,0.09,0.03,0.14c0.56,0.46,1.05,0.95,1.47,1.49
			c-0.27,0.65-0.8,1.35-1.59,2.11c-0.05,0.04-0.06,0.1-0.05,0.15C108.38,29.51,108.43,29.52,108.5,29.49 M100.43,15.88
			c0.1,0.38,0.1,0.89,0.1,1.21v4.82c-0.03,4.55-0.35,7.78-0.96,9.69c-0.01,0.08,0,0.14,0.04,0.19c0.01-0.01,0.01-0.01,0.03-0.03
			c1.49-1.7,2.3-3.96,2.44-6.76h1.89v4.37c0,0.15-0.06,0.29-0.18,0.41c-0.12,0.11-0.8,0.15-1.67,0.15
			c-0.15-0.01-0.25,0.03-0.28,0.13c-0.01,0.12,0.04,0.19,0.15,0.24c0.42,0.08,0.75,0.29,1.01,0.62c0.18,0.28,0.29,0.56,0.33,0.8
			c0.01,0.1,0.06,0.15,0.14,0.14c0.46,0.01,0.93-0.11,1.39-0.37c0.45-0.29,0.68-0.76,0.7-1.43V17.15c0-0.96,0.68-1.27,0.68-1.27
			H100.43z M102.23,16.59h1.8L103.96,20h-1.81L102.23,16.59z M103.96,24.3h-1.85c0.03-0.69,0.04-1.49,0.04-2.39v-0.93V20.7h1.81
			v0.84V24.3z M99.6,31.79L99.6,31.79C99.59,31.81,99.64,31.82,99.6,31.79"/>
		<path style="&st1;" d="M96.21,17.65L96.21,17.65h-5.92v-1.3c3.11,0,6.03-0.01,6.03-0.01c0.04-0.42,0.28-0.72,0.28-0.72
			l-11.67-0.01c0,0-1.86-0.06-2.1-0.1c0.16,0.34,0.19,0.54,0.21,0.82c0.01,0.01,2.59,0.01,5.48,0.01v1.3h-4.98
			c0,0-0.02-0.2-0.03-0.25c-0.01-0.06-0.02-0.11-0.03-0.17c-0.01-0.07-0.02-0.13-0.03-0.19c0-0.03-0.01-0.04-0.02-0.06
			c-0.01-0.01-0.01-0.02-0.01-0.03c-0.03-0.13-0.11-0.14-0.15-0.18c0,0-0.2,1.33-1.43,2.25c-0.03,0.01-0.05,0.03-0.08,0.06
			c-0.23,0.16-0.49,0.32-0.78,0.47c0,0-0.13,0.03-0.02,0.23c0.11,0.2,0.77,1.32,0.77,1.32s1.96-0.08,1.91-2.73
			c0.58,0.01,2.61,0,4.9,0v3.85l1.78-0.57v-3.27l5.46,0c-0.14,1.06-0.43,3-0.43,3c0.03,0.04,0.09,0.01,0.13-0.03
			c0.32-0.15,0.8-0.84,1.32-1.48c0.69-0.96,1.66-0.93,1.66-0.93S96.57,17.69,96.21,17.65 M91.01,21.67c0.86,0.01,2.2,0.01,3.69,0.01
			v-0.74h-3.16c0,0-0.24-0.01-0.54-0.03V21.67z M94.7,19.9v-0.74h-3.16c0,0-0.24-0.01-0.54-0.02v0.77H94.7z M96.76,27.88
			c-0.1,0.01-0.13,0.18-0.16,0.29c-0.17,0.9-0.54,1.52-1.2,1.67c-0.37,0.16-1.07,0.09-3.61,0.11c-0.63-0.04-1.04-0.09-1.2-0.18
			c-0.19-0.14-0.29-0.3-0.3-0.48v-0.79h5.06V23.9c0.03-0.99,0.59-1.32,0.59-1.32h-12.7c0.15,0.92,0.14,0.75,0.14,1.49v2.53
			c0,0.56-0.07,1.89-0.07,1.89h5.2v1.45c0,0.43,0.21,0.83,0.63,1.19c0.46,0.45,1.75,0.66,3.87,0.66c1.97-0.01,3.3-0.14,3.99-0.37
			c0.63-0.19,1.19-0.57,0.94-0.8C96.52,29.33,96.87,27.88,96.76,27.88 M88.5,27.77H85V25.9h3.5V27.77z M88.5,25.17H85v-1.88h3.5
			V25.17z M90.29,23.29h3.45v1.88h-3.45V23.29z M90.29,25.9h3.45v1.86h-3.45V25.9z M87.75,19.9v-0.74H84.6c0,0-0.24-0.01-0.54-0.02
			v0.16h-0.01v0.49h0.01v0.13H87.75z M84.05,21.63h0.01v0.03c0.86,0.01,2.21,0.01,3.69,0.01v-0.74H84.6c0,0-0.24-0.01-0.54-0.03
			v0.25h-0.01V21.63z"/>
		<path style="&st2;" d="M70.49,27.92c-0.46-0.7-1.9-1.43-2.73-1.72v-0.71c1.44,0,2.68,0,2.68,0c0.04-0.41,0.28-0.7,0.28-0.7
			l-2.95-0.01v-0.16c0.03-1.06,0.63-1.27,0.63-1.27l-2.41-0.5v1.47v0.46h-0.73c0,0-1.86-0.06-2.1-0.09c0.17,0.32,0.2,0.52,0.21,0.8
			c0.01,0,0.67,0.01,1.58,0.01c-0.04,0.28-0.09,0.7-0.2,1.13c-0.49,2.14-1.89,3.95-2.62,4.8c0,0,0.79-0.35,1.31-0.61
			c1.64-0.83,2.28-2.08,2.55-3.1v4.08l1.78-0.56v-4.41c0.53,0.57,1.01,1.36,1.35,2.29c0.07,0.2,0.14,0.41,0.2,0.6
			c0.05,0.09,0.1,0.08,0.2-0.08c0.26-0.54,0.58-0.98,1.01-1.47C70.6,28.11,70.55,28.03,70.49,27.92 M77.38,21.3
			c-0.8,0-3.47,0.12-3.47,0.12s-0.3,0-0.68-0.02v-1v-2.21c1.8-0.14,2.49-0.24,4.43-0.57c1.21-0.24,1.26-0.06,1.54-0.14
			c-0.06-0.19-1.07-1.49-1.43-1.88c-0.32-0.37-0.4-0.18-0.82-0.01c-0.4,0.16-3.76,1.73-3.76,1.73s-1.19-0.54-1.67-0.77
			c-0.08-0.01-0.12,0.05-0.14,0.16v1.09v2.62v1.75c0,2.49-0.49,6.75-1.39,8.93c-0.28,0.52-0.39,0.81-0.34,0.88
			c0.04,0.07,0.12,0.07,0.24,0c1.56-1.24,2.55-3.24,2.97-6.01c0.16-1.08,0.26-2.59,0.32-3.81c0.58,0,1.21,0,1.97,0v9.66l1.79-0.56
			v-9.1c1.29,0,1.92-0.01,1.92-0.01c0.1-0.63,0.36-1.06,0.44-1.09C79,21.1,77.65,21.3,77.38,21.3 M70.53,21.67l-2.25,0
			c-0.21,0.26-0.4,0.49-0.56,0.71c1.37,0,2.54-0.01,2.54-0.01C70.3,21.96,70.53,21.67,70.53,21.67 M65.43,22.37
			c-0.1-0.22-0.21-0.46-0.34-0.71c-0.43-0.02-1.76-0.06-1.96-0.09c0.16,0.32,0.19,0.52,0.21,0.8
			C63.35,22.37,64.27,22.37,65.43,22.37 M70.89,17.75c0.03-0.41,0.28-0.7,0.28-0.7h-3.12v-0.04c0-0.89,0.5-1.27,0.5-1.27l-2.28-0.5
			v1.8c-0.73-0.02-2.61-0.04-2.95-0.09c0.16,0.32,0.21,0.8,0.21,0.8H70.89z M66.38,22.61L66.38,22.61L66.38,22.61z M66.49,22.64
			c0.02-0.01,0.05-0.04,0.05-0.04c0.49-0.61,3.05-3.79,3.81-4.72c0,0,0-0.02,0-0.02c-0.01-0.01-0.02-0.02-0.04-0.01
			c0,0-0.01,0-0.01,0H70.3c-0.89,0.74-3.17,2.32-5.57,1.15h0H64.7c-0.01,0.01-0.03,0.02-0.02,0.03v0.01
			c0.22,0.46,1.42,2.98,1.7,3.56C66.39,22.65,66.45,22.67,66.49,22.64"/>
		<path style="&st2;" d="M39.38,0.21c-0.05-0.1-0.17-0.14-0.26-0.09c-0.02,0.01-0.04,0.02-0.05,0.03l-0.01,0
			C33.29,5.44,18.48,16.47,1.82,6.8L1.78,6.79c-0.05-0.03-0.11-0.03-0.17,0C1.51,6.83,1.47,6.94,1.5,7.03h0
			c1.68,3.6,10.73,23.04,12.83,27.53c0.15,0.29,0.5,0.42,0.79,0.28c0.16-0.08,0.29-0.29,0.29-0.29c0.68-0.97,2.01-2.87,3.72-5.3
			c-2.21-4.74-4.93-10.58-5.64-12.1c0,0-0.17-0.34-0.21-0.78c-0.07-0.81,0.41-1.36,1.24-1.24c0.52,0.08,0.88,0.32,0.88,0.32
			c2.94,1.7,5.73,2.35,8.34,2.35c1.29,0,2.53-0.16,3.73-0.44c4.79-6.83,9.64-13.74,11.89-16.96l0.02-0.02
			C39.41,0.33,39.41,0.27,39.38,0.21"/>
		<path style="&st2;" d="M39.44,12.76c-3.01,4.31-13.32,19-15.28,21.79c0,0-0.09,0.13-0.19,0.18c-0.19,0.09-0.42,0.01-0.51-0.19
			l0.01,0.01c-1.33-2.86-6.77-14.56-7.85-16.86h0c-0.02-0.06,0.01-0.13,0.07-0.16c0.04-0.02,0.08-0.02,0.11,0l0.02,0.01
			c10.59,5.11,19.74-1.58,23.42-4.96l0,0c0.01-0.01,0.02-0.02,0.03-0.02c0.06-0.03,0.14,0,0.17,0.06c0.02,0.03,0.02,0.07,0,0.11
			L39.44,12.76z"/>
	</g>
</g>
</svg>
