<?xml version="1.0" encoding="utf-8"?>
<!-- Generator: Adobe Illustrator 27.2.0, SVG Export Plug-In . SVG Version: 6.00 Build 0)  -->
<svg version="1.1" id="圖層_1" xmlns="http://www.w3.org/2000/svg" xmlns:xlink="http://www.w3.org/1999/xlink" x="0px" y="0px"
	 viewBox="0 0 140 35" style="enable-background:new 0 0 140 35;" xml:space="preserve">
<style type="text/css">
	.st0{fill:#3E3A39;}
	.st1{fill:#DF0011;}
</style>
<g>
	<path class="st0" d="M55.6,25.9v-1.4h4v-6.9c0.1-1,0.7-1.4,0.7-1.4l-2.6-0.2v7.7h-4l0,7.9l1.8-0.6v-4.5h1.8h0v5.1l1.8-0.6v-4.5h1.3
		h0c0-0.7,0.3-0.7,0.3-0.7S55.6,25.9,55.6,25.9z M56.9,15.7h-7.7v7.2h7.7V15.7z M55.1,22.2H51v-1.5h4.1V22.2z M55.1,20.1H51v-1.5
		h4.1V20.1z M55.1,17.9H51v-1.5h4.1V17.9z M48.3,23.8v-7.4l-1.9-0.3c0,0,0.1,3,0.1,3.8v1.3c0,1-0.1,3.4-0.1,3.4h4.5v1.4
		c0,0-3.6,0-3.8,0c-0.7,0-1.1,0-1.7-0.1c0.2,0.3,0.3,0.5,0.2,0.9c0.3,0,0.6,0,1.1,0h0.6v1c0,1.9-0.7,3.5-1.3,4.3
		c0,0,0.7-0.4,1.2-0.7c1.7-1.1,2-2.5,2-3.5v-1.2h1.8v5.1l1.8-0.6v-7.3C52.5,23.8,48.3,23.8,48.3,23.8z"/>
	<path class="st0" d="M107.6,22.5c0,0,0.8-1,1.2-1.5c0.1-0.1,0.1-0.1,0-0.3c-0.3-0.5-1-1.2-1.7-1.7c0.7-0.6,1.1-1,1.7-2.1
		c0.4-0.8,0.7-0.7,0.7-0.8c-0.4-0.2-1.5-0.6-1.8-0.8c-0.1-0.1-0.2,0-0.2,0.1c0,0.1,0,0.2-0.1,0.4c-0.1,1.1-0.3,2.1-0.7,3
		c-0.3-0.2-0.4-0.3-0.5-0.3c-0.1,0-0.1,0-0.2,0c0,0,0,0.1,0,0.1c0.6,0.8,1,2,1.2,3.5C107.3,22.6,107.5,22.7,107.6,22.5 M111.8,18.8
		c0,0,0,0.1,0,0.1c0.8,0.6,1.5,1.7,2,3.1c0.1,0.2,0.1,0.4,0.2,0.7c0.1,0.1,0.1,0.1,0.2-0.1c0.3-0.6,0.6-1.1,1-1.6
		c0.1-0.1,0-0.2,0-0.3c-0.6-0.8-1.4-1.3-2.3-1.7c0.8-0.5,1.3-1.1,1.9-2.2c0.3-0.5,0.8-0.6,0.8-0.7c-0.2-0.1-1.5-0.6-1.8-0.9
		c-0.1-0.1-0.2,0-0.2,0.1c-0.2,1.6-0.6,2.8-0.9,3.5c-0.3-0.1-0.6-0.2-0.6-0.2C111.9,18.7,111.8,18.8,111.8,18.8 M109.1,18.7
		c0,0,0,0.1,0,0.1c0.1,0.1,0.1,0.1,0.2,0.2c0.1,0.1,0.2,0.2,0.3,0.4c0.4,0.5,0.7,1.2,1,2c0.1,0.4,0.2,0.7,0.3,1.1
		c0.1,0.2,0.1,0.2,0.3-0.1c0.3-0.4,0.6-0.9,1-1.3c0.1-0.1,0.1-0.1,0-0.3c-0.3-0.7-1.1-1.3-1.9-1.8c0.8-0.5,1.1-0.9,1.7-2
		c0.4-0.7,0.8-0.7,0.8-0.9c-0.4-0.1-1.5-0.6-1.8-0.8c-0.1-0.1-0.2,0-0.2,0.1c0,0.1,0,0.2-0.1,0.4c-0.1,1.2-0.4,2.3-0.7,3.1
		c-0.3-0.1-0.5-0.2-0.6-0.3C109.2,18.6,109.1,18.6,109.1,18.7 M110.8,24c0.6-0.6,0.9-0.4,0.9-0.5c0-0.1-1.3-0.8-1.8-1
		c-0.1,0-0.1,0-0.2,0.1c-0.1,0.4-0.1,0.9-0.3,1.4h-3.4c0.1,0.6,0.1,0.8,0.1,1v6.9l1.7-0.6v-0.5h5.6v1.1l1.7-0.6v-0.5v-5.6
		c0-1,0.6-1.3,0.6-1.3L110.8,24L110.8,24z M113.4,30.1h-5.6v-5.4h5.6V30.1z M108.5,29.5c0.7-0.2,1.3-0.6,2-1.2
		c0.1-0.1,0.1-0.2,0.2-0.2c0.3,0.4,0.7,0.9,1,1.5c0,0.1,0.1,0.1,0.2,0c0.3-0.3,0.6-0.9,0.9-1.2c0,0,0.1-0.1,0-0.2
		c-0.2-0.3-0.6-0.6-1.2-1.1c0.2-0.3,0.3-0.4,0.6-0.8c0.4-0.5,0.6-0.4,0.7-0.5c-0.1-0.1-1.3-0.7-1.8-1c-0.1,0-0.1,0-0.2,0.1
		c-0.1,0.5-0.3,1-0.4,1.4c-0.6-0.3-1.2-0.6-1.8-0.8c0,0-0.1,0-0.1,0c0,0,0,0.1,0,0.1c0.6,0.5,1.1,1,1.5,1.5
		c-0.3,0.6-0.8,1.4-1.6,2.1c-0.1,0-0.1,0.1-0.1,0.1C108.4,29.5,108.4,29.5,108.5,29.5 M100.4,15.9c0.1,0.4,0.1,0.9,0.1,1.2v4.8
		c0,4.5-0.3,7.8-1,9.7c0,0.1,0,0.1,0,0.2c0,0,0,0,0,0c1.5-1.7,2.3-4,2.4-6.8h1.9v4.4c0,0.1-0.1,0.3-0.2,0.4
		c-0.1,0.1-0.8,0.1-1.7,0.1c-0.2,0-0.2,0-0.3,0.1c0,0.1,0,0.2,0.2,0.2c0.4,0.1,0.8,0.3,1,0.6c0.2,0.3,0.3,0.6,0.3,0.8
		c0,0.1,0.1,0.1,0.1,0.1c0.5,0,0.9-0.1,1.4-0.4c0.4-0.3,0.7-0.8,0.7-1.4V17.1c0-1,0.7-1.3,0.7-1.3S100.4,15.9,100.4,15.9z
		 M102.2,16.6h1.8L104,20h-1.8L102.2,16.6z M104,24.3h-1.8c0-0.7,0-1.5,0-2.4V21v-0.3h1.8v0.8V24.3z M99.6,31.8L99.6,31.8
		C99.6,31.8,99.6,31.8,99.6,31.8"/>
	<path class="st0" d="M96.2,17.6L96.2,17.6h-5.9v-1.3c3.1,0,6,0,6,0c0-0.4,0.3-0.7,0.3-0.7l-11.7,0c0,0-1.9-0.1-2.1-0.1
		C83,15.8,83,16,83,16.3c0,0,2.6,0,5.5,0v1.3h-5c0,0,0-0.2,0-0.2c0-0.1,0-0.1,0-0.2c0-0.1,0-0.1,0-0.2c0,0,0,0,0-0.1c0,0,0,0,0,0
		c0-0.1-0.1-0.1-0.2-0.2c0,0-0.2,1.3-1.4,2.2c0,0-0.1,0-0.1,0.1c-0.2,0.2-0.5,0.3-0.8,0.5c0,0-0.1,0,0,0.2c0.1,0.2,0.8,1.3,0.8,1.3
		s2-0.1,1.9-2.7c0.6,0,2.6,0,4.9,0v3.9l1.8-0.6v-3.3h5.5c-0.1,1.1-0.4,3-0.4,3c0,0,0.1,0,0.1,0c0.3-0.1,0.8-0.8,1.3-1.5
		c0.7-1,1.7-0.9,1.7-0.9S96.6,17.7,96.2,17.6 M91,21.7c0.9,0,2.2,0,3.7,0v-0.7h-3.2c0,0-0.2,0-0.5,0L91,21.7L91,21.7z M94.7,19.9
		v-0.7h-3.2c0,0-0.2,0-0.5,0v0.8L94.7,19.9L94.7,19.9z M96.8,27.9c-0.1,0-0.1,0.2-0.2,0.3c-0.2,0.9-0.5,1.5-1.2,1.7
		C95,30,94.3,29.9,91.8,30c-0.6,0-1-0.1-1.2-0.2c-0.2-0.1-0.3-0.3-0.3-0.5v-0.8h5.1v-4.6c0-1,0.6-1.3,0.6-1.3H83.2
		c0.2,0.9,0.1,0.8,0.1,1.5v2.5c0,0.6-0.1,1.9-0.1,1.9h5.2v1.5c0,0.4,0.2,0.8,0.6,1.2c0.5,0.5,1.8,0.7,3.9,0.7c2,0,3.3-0.1,4-0.4
		c0.6-0.2,1.2-0.6,0.9-0.8C96.5,29.3,96.9,27.9,96.8,27.9 M88.5,27.8H85v-1.9h3.5V27.8z M88.5,25.2H85v-1.9h3.5V25.2z M90.3,23.3
		h3.4v1.9h-3.4V23.3z M90.3,25.9h3.4v1.9h-3.4V25.9z M87.8,19.9v-0.7h-3.2c0,0-0.2,0-0.5,0v0.2h0v0.5h0v0.1L87.8,19.9L87.8,19.9z
		 M84.1,21.6L84.1,21.6L84.1,21.6c0.9,0,2.2,0,3.7,0v-0.7h-3.2c0,0-0.2,0-0.5,0v0.2h0C84,21.1,84,21.6,84.1,21.6z"/>
	<path class="st1" d="M70.5,27.9c-0.5-0.7-1.9-1.4-2.7-1.7v-0.7c1.4,0,2.7,0,2.7,0c0-0.4,0.3-0.7,0.3-0.7l-2.9,0v-0.2
		c0-1.1,0.6-1.3,0.6-1.3L66,22.9v1.5v0.5h-0.7c0,0-1.9-0.1-2.1-0.1c0.2,0.3,0.2,0.5,0.2,0.8c0,0,0.7,0,1.6,0c0,0.3-0.1,0.7-0.2,1.1
		c-0.5,2.1-1.9,4-2.6,4.8c0,0,0.8-0.4,1.3-0.6c1.6-0.8,2.3-2.1,2.6-3.1v4.1l1.8-0.6v-4.4c0.5,0.6,1,1.4,1.3,2.3
		c0.1,0.2,0.1,0.4,0.2,0.6c0.1,0.1,0.1,0.1,0.2-0.1c0.3-0.5,0.6-1,1-1.5C70.6,28.1,70.6,28,70.5,27.9 M77.4,21.3
		c-0.8,0-3.5,0.1-3.5,0.1s-0.3,0-0.7,0v-1v-2.2c1.8-0.1,2.5-0.2,4.4-0.6c1.2-0.2,1.3-0.1,1.5-0.1c-0.1-0.2-1.1-1.5-1.4-1.9
		c-0.3-0.4-0.4-0.2-0.8,0c-0.4,0.2-3.8,1.7-3.8,1.7s-1.2-0.5-1.7-0.8c-0.1,0-0.1,0-0.1,0.2v1.1v2.6v1.8c0,2.5-0.5,6.8-1.4,8.9
		c-0.3,0.5-0.4,0.8-0.3,0.9c0,0.1,0.1,0.1,0.2,0c1.6-1.2,2.6-3.2,3-6c0.2-1.1,0.3-2.6,0.3-3.8c0.6,0,1.2,0,2,0v9.7l1.8-0.6v-9.1
		c1.3,0,1.9,0,1.9,0c0.1-0.6,0.4-1.1,0.4-1.1C79,21.1,77.7,21.3,77.4,21.3 M70.5,21.7h-2.2c-0.2,0.3-0.4,0.5-0.6,0.7
		c1.4,0,2.5,0,2.5,0C70.3,22,70.5,21.7,70.5,21.7 M65.4,22.4c-0.1-0.2-0.2-0.5-0.3-0.7c-0.4,0-1.8-0.1-2-0.1
		c0.2,0.3,0.2,0.5,0.2,0.8C63.3,22.4,64.3,22.4,65.4,22.4 M70.9,17.8c0-0.4,0.3-0.7,0.3-0.7H68v0c0-0.9,0.5-1.3,0.5-1.3l-2.3-0.5V17
		c-0.7,0-2.6,0-3-0.1c0.2,0.3,0.2,0.8,0.2,0.8S70.9,17.7,70.9,17.8z M66.4,22.6L66.4,22.6L66.4,22.6z M66.5,22.6
		C66.5,22.6,66.5,22.6,66.5,22.6c0.5-0.7,3.1-3.8,3.9-4.8v0c0,0,0,0,0,0h0h0c-0.9,0.7-3.2,2.3-5.6,1.1l0,0h0c0,0,0,0,0,0v0
		c0.2,0.5,1.4,3,1.7,3.6C66.4,22.6,66.4,22.7,66.5,22.6"/>
	<path class="st1" d="M39.4,0.2c0-0.1-0.2-0.1-0.3-0.1c0,0,0,0,0,0h0C33.3,5.4,18.5,16.5,1.8,6.8l0,0c0,0-0.1,0-0.2,0
		C1.5,6.8,1.5,6.9,1.5,7l0,0c1.7,3.6,10.7,23,12.8,27.5c0.1,0.3,0.5,0.4,0.8,0.3c0.2-0.1,0.3-0.3,0.3-0.3c0.7-1,2-2.9,3.7-5.3
		c-2.2-4.7-4.9-10.6-5.6-12.1c0,0-0.2-0.3-0.2-0.8c-0.1-0.8,0.4-1.4,1.2-1.2c0.5,0.1,0.9,0.3,0.9,0.3c2.9,1.7,5.7,2.4,8.3,2.4
		c1.3,0,2.5-0.2,3.7-0.4c4.8-6.8,9.6-13.7,11.9-17l0,0C39.4,0.3,39.4,0.3,39.4,0.2"/>
	<path class="st1" d="M39.4,12.8c-3,4.3-13.3,19-15.3,21.8c0,0-0.1,0.1-0.2,0.2c-0.2,0.1-0.4,0-0.5-0.2l0,0
		c-1.3-2.9-6.8-14.6-7.9-16.9l0,0c0-0.1,0-0.1,0.1-0.2c0,0,0.1,0,0.1,0l0,0c10.6,5.1,19.7-1.6,23.4-5l0,0c0,0,0,0,0,0
		c0.1,0,0.1,0,0.2,0.1C39.5,12.7,39.5,12.7,39.4,12.8L39.4,12.8z"/>
</g>
</svg>
